<svg width="248" height="38" viewBox="0 0 248 38" fill="none" xmlns="http://www.w3.org/2000/svg">
<path d="M233.949 0.425781H231.627L218.308 37.6258H220.103C220.32 37.6258 220.5 37.5557 220.655 37.4155C220.807 37.2753 220.917 37.107 220.978 36.9154L224.798 26.1106L225.509 24.1104L232.134 5.34216C232.256 5.02904 232.371 4.68322 232.477 4.30467C232.583 3.92613 232.686 3.52889 232.776 3.10829C232.992 3.96819 233.213 4.70191 233.442 5.31412L240.067 24.1104L240.778 26.1106L242.111 29.882H239.298C239.298 29.882 239.286 29.882 239.277 29.882C238.689 29.882 238.21 30.4288 238.21 31.1017C238.21 31.7747 238.664 32.2888 239.233 32.3168H239.257C239.265 32.3168 239.269 32.3168 239.277 32.3168C239.286 32.3168 239.29 32.3168 239.298 32.3168H242.97L244.593 36.9107C244.671 37.121 244.777 37.2939 244.916 37.4248C245.056 37.5557 245.231 37.6211 245.444 37.6211H247.26L233.949 0.425781Z" fill="#E2D5C4"/>
<path d="M34.9243 0.425781H32.5566V37.6211H34.9243V0.425781Z" fill="#E2D5C4"/>
<path d="M160.021 0.425781H157.653V37.6211H160.021V0.425781Z" fill="#E2D5C4"/>
<path d="M95.1418 0.425781L81.8232 37.6258H83.6184C83.831 37.6258 84.0151 37.5557 84.1704 37.4155C84.3217 37.2753 84.4321 37.107 84.4935 36.9154L88.3128 26.1106L89.0243 24.1104L95.6488 5.34216C95.7715 5.02904 95.886 4.68322 95.9923 4.30467C96.0986 3.92613 96.2009 3.52889 96.2908 3.10829C96.5075 3.96819 96.7284 4.70191 96.9574 5.31412L103.582 24.1104L104.293 26.1106L105.626 29.882H102.813C102.813 29.882 102.801 29.882 102.797 29.882C102.208 29.882 101.729 30.4288 101.729 31.1017C101.729 31.7747 102.183 32.2888 102.752 32.3168H102.776C102.784 32.3168 102.789 32.3168 102.797 32.3168C102.805 32.3168 102.809 32.3168 102.817 32.3168H106.489L108.113 36.9107C108.19 37.121 108.297 37.2939 108.436 37.4248C108.575 37.5557 108.751 37.6211 108.963 37.6211H110.779L97.4644 0.425781H95.1418Z" fill="#E2D5C4"/>
<path d="M1.79353 31.6025C1.02885 31.6025 0.411377 32.3082 0.411377 33.1821C0.411377 34.0561 1.02885 34.7617 1.79353 34.7617C2.55821 34.7617 3.17567 34.0561 3.17567 33.1821C3.17567 32.3082 2.55821 31.6025 1.79353 31.6025Z" fill="#E2D5C4"/>
<path d="M132.987 20.4839C134.414 20.2922 135.698 19.9137 136.839 19.3529C137.98 18.7921 138.957 18.0677 139.758 17.1845C140.564 16.3012 141.182 15.2684 141.611 14.0954C142.04 12.9224 142.253 11.6232 142.253 10.2071C142.253 7.0012 141.321 4.56638 139.46 2.91201C137.595 1.25764 134.794 0.425781 131.053 0.425781H122.727V8.52472C122.727 8.59949 122.723 8.66025 122.723 8.70698C122.723 9.45939 123.254 10.0669 123.913 10.0669C124.571 10.0669 125.103 9.45939 125.103 8.70698C125.103 8.67894 125.103 8.63688 125.103 8.59482V2.55683H131.061C133.96 2.55683 136.164 3.19709 137.673 4.47759C139.182 5.75809 139.938 7.7209 139.938 10.366C139.938 11.6652 139.73 12.8289 139.317 13.8617C138.904 14.8945 138.299 15.7825 137.509 16.5162C136.72 17.2499 135.755 17.8154 134.61 18.2126C133.469 18.6052 132.177 18.8061 130.734 18.8061H130.386V20.8344C130.451 20.839 130.582 20.9465 130.746 21.026C130.905 21.1054 131.053 21.2129 131.183 21.3531C131.314 21.4933 131.441 21.6615 131.564 21.8532L142.008 36.9434C142.159 37.2052 142.327 37.3874 142.502 37.4809C142.678 37.579 142.895 37.6258 143.157 37.6258H145.181L133.976 21.5354C133.686 21.0961 133.355 20.7456 132.987 20.4839Z" fill="#E2D5C4"/>
<path d="M123.836 34.7559C123.071 34.7559 122.453 35.4615 122.453 36.3355C122.453 37.2094 123.071 37.9151 123.836 37.9151C124.6 37.9151 125.218 37.2094 125.218 36.3355C125.218 35.4615 124.6 34.7559 123.836 34.7559Z" fill="#E2D5C4"/>
<path d="M63.0701 18.5631C64.1292 18.264 65.0656 17.8294 65.8875 17.2639C66.7095 16.6938 67.3965 16.0255 67.9567 15.2544C68.5169 14.4833 68.9463 13.6421 69.2448 12.7308C69.5433 11.8194 69.6946 10.8708 69.6946 9.88935C69.6946 8.39854 69.4779 7.06663 69.0485 5.89362C68.6191 4.7206 67.9608 3.72518 67.0693 2.91201C66.182 2.09885 65.0534 1.47729 63.6876 1.05669C62.3218 0.636083 60.7106 0.425781 58.8582 0.425781H49.498V8.3892C49.498 8.3892 49.498 8.41256 49.498 8.42191C49.498 8.43126 49.498 8.44528 49.498 8.45462C49.5144 9.18834 50.0378 9.77718 50.6839 9.77718C51.33 9.77718 51.8739 9.16965 51.8739 8.41724C51.8739 8.38452 51.8657 8.35648 51.8657 8.32377V2.55684H58.8582C61.7575 2.55684 63.9002 3.20176 65.2864 4.49161C66.6727 5.78146 67.3678 7.67884 67.3678 10.1838C67.3678 11.1465 67.2084 12.0858 66.8853 12.9971C66.5623 13.9084 66.0593 14.7216 65.3805 15.4413C64.6976 16.161 63.8225 16.7405 62.7593 17.1751C61.692 17.6144 60.408 17.8341 58.9073 17.8341H59.0095V19.8062H60.0564C61.4221 19.8062 62.6407 19.9838 63.7121 20.3296C64.7835 20.6801 65.6913 21.1849 66.4273 21.8391C67.1634 22.4981 67.7277 23.2926 68.1162 24.2319C68.5087 25.1712 68.7009 26.2274 68.7009 27.4004C68.7009 29.9614 67.9689 31.943 66.505 33.3543C65.0411 34.7657 62.882 35.4713 60.0318 35.4713L49.498 35.462V37.6304H60.0564C61.7902 37.6304 63.3359 37.3968 64.7017 36.9341C66.0675 36.4714 67.2165 35.7985 68.153 34.9246C69.0894 34.0506 69.8009 32.9804 70.2916 31.7186C70.7823 30.4568 71.0277 29.0361 71.0277 27.4612C71.0277 24.989 70.3407 22.9981 68.9708 21.4793C67.5968 19.9651 65.6299 18.9931 63.0701 18.5725V18.5631Z" fill="#E2D5C4"/>
<path d="M16.4819 20.3525C15.7131 19.6515 14.8462 19.0673 13.8689 18.6047C12.8957 18.142 11.8938 17.7167 10.8674 17.3288C9.84106 16.9456 8.83921 16.5531 7.86598 16.1605C6.89275 15.7679 6.02175 15.2819 5.25299 14.7024C4.48422 14.1229 3.86675 13.4219 3.40058 12.5994C2.93441 11.7769 2.69724 10.7347 2.69724 9.47291C2.69724 8.5102 2.85263 7.58954 3.1675 6.71095C3.48236 5.83236 3.94035 5.06125 4.54964 4.39763C5.15485 3.73402 5.90726 3.20593 6.80279 2.81804C7.69832 2.43482 8.73698 2.23854 9.91876 2.23854C11.1005 2.23854 12.0942 2.40678 12.8957 2.73859C13.7013 3.0704 14.3719 3.43492 14.9076 3.82749C15.4433 4.22005 15.8685 4.5799 16.1834 4.90703C16.4983 5.22949 16.7559 5.39306 16.9522 5.39306C17.2139 5.39306 17.4102 5.24351 17.5492 4.94442L18.1012 3.73402C16.9972 2.47221 15.7745 1.53286 14.4332 0.920653C13.092 0.308442 11.579 0 9.89013 0C8.38531 0 7.04814 0.266382 5.87454 0.803819C4.70094 1.34126 3.71545 2.04693 2.91806 2.93487C2.12066 3.81814 1.51546 4.8416 1.10245 5.99593C0.701713 7.15492 0.493164 8.35597 0.493164 9.59909C0.493164 11.1927 0.726248 12.5199 1.19651 13.5808C1.66267 14.6416 2.28014 15.5249 3.04891 16.2353C3.81768 16.9456 4.68459 17.5298 5.65782 17.9831C6.63104 18.4411 7.6329 18.8523 8.65928 19.2215C9.68567 19.5907 10.6875 19.9646 11.6608 20.3525C12.634 20.7404 13.505 21.2171 14.2697 21.7872C15.0384 22.3574 15.6559 23.0677 16.1221 23.9183C16.5882 24.7688 16.8254 25.8484 16.8254 27.1663C16.8254 28.3767 16.6414 29.5123 16.2734 30.5685C15.9053 31.6293 15.3737 32.5453 14.6745 33.3164C13.9752 34.0875 13.1206 34.6951 12.1106 35.1437C11.9429 35.2185 11.7671 35.2745 11.5953 35.3353V37.6767C12.0983 37.5411 12.5767 37.3729 13.0306 37.1673C14.3187 36.5784 15.4065 35.7793 16.2979 34.7605C17.1853 33.7417 17.8641 32.55 18.3343 31.1713C18.8005 29.7974 19.0336 28.3299 19.0336 26.769C19.0336 25.2081 18.8005 23.9697 18.3343 22.9462C17.8641 21.9227 17.2507 21.0582 16.4819 20.3572V20.3525Z" fill="#E2D5C4"/>
<path d="M194.01 0.154297C193.245 0.154297 192.628 0.859975 192.628 1.73389C192.628 2.60781 193.245 3.31349 194.01 3.31349C194.775 3.31349 195.392 2.60781 195.392 1.73389C195.392 0.859975 194.775 0.154297 194.01 0.154297Z" fill="#F7AB60"/>
<path d="M199.003 0.425572C198.958 0.425572 198.917 0.420898 198.88 0.420898C198.86 0.420898 198.84 0.425572 198.823 0.425572H198.815C198.292 0.467632 197.875 0.958335 197.875 1.56587C197.875 2.17341 198.292 2.66879 198.815 2.70617H198.856C198.864 2.70617 198.872 2.70617 198.88 2.70617C198.897 2.70617 198.917 2.70617 198.938 2.70617H201.269V37.6162H203.636V2.71085H215.155V0.425572H199.003Z" fill="#F7AB60"/>
<path d="M188.825 0.425572H188.817C188.797 0.425572 188.776 0.420898 188.76 0.420898C188.723 0.420898 188.682 0.420898 188.633 0.425572H172.076V2.71085H183.591V37.6209H185.959V2.71085H188.699C188.699 2.71085 188.739 2.71085 188.756 2.71085C188.764 2.71085 188.772 2.71085 188.78 2.71085H188.821C189.345 2.66879 189.762 2.17341 189.762 1.56587C189.762 0.958335 189.345 0.462959 188.821 0.425572H188.825Z" fill="#F7AB60"/>
</svg>
